<?xml version="1.0" standalone="no"?>
<!DOCTYPE svg PUBLIC "-//W3C//DTD SVG 20010904//EN"
 "http://www.w3.org/TR/2001/REC-SVG-20010904/DTD/svg10.dtd">
<svg version="1.0" xmlns="http://www.w3.org/2000/svg"
 width="300.000000pt" height="300.000000pt" viewBox="0 0 300.000000 300.000000"
 preserveAspectRatio="xMidYMid meet">
<metadata>
Created by potrace 1.10, written by Peter Selinger 2001-2011
</metadata>
<g transform="translate(0.000000,300.000000) scale(0.100000,-0.100000)"
fill="#000000" stroke="none">
<path d="M1170 2555 c-10 -12 -10 -18 0 -30 7 -8 18 -15 25 -15 7 0 18 7 25
15 10 12 10 18 0 30 -7 8 -18 15 -25 15 -7 0 -18 -7 -25 -15z"/>
<path d="M1490 2503 c-98 -7 -182 -24 -262 -52 -100 -35 -302 -131 -378 -179
-30 -20 -64 -36 -75 -36 -11 -1 -21 -9 -23 -18 -2 -9 -32 -46 -67 -83 -68 -70
-162 -202 -151 -212 7 -8 2 -14 59 72 56 85 149 183 179 187 13 2 28 13 34 26
10 21 103 92 120 92 3 0 -14 -17 -39 -37 -131 -110 -230 -255 -288 -422 -22
-62 -22 -61 -11 -61 5 0 14 19 21 43 45 151 166 332 290 431 129 103 202 135
375 161 110 16 137 14 54 -5 -199 -45 -351 -125 -492 -259 -60 -58 -156 -177
-156 -195 0 -18 21 0 48 41 44 67 167 188 244 239 92 62 217 118 317 144 87
23 238 41 256 31 5 -3 37 -6 70 -7 104 -3 308 -91 433 -188 75 -58 158 -146
211 -225 71 -104 126 -241 122 -303 0 -15 3 -29 9 -33 5 -3 10 -15 10 -26 0
-10 5 -19 11 -19 6 0 8 7 5 16 -4 10 1 25 11 36 17 19 17 21 -5 38 -12 10 -30
43 -38 72 -38 127 -124 268 -229 373 -108 107 -225 180 -380 235 -68 25 -38
25 54 -1 98 -26 274 -113 316 -154 17 -18 41 -36 53 -39 30 -10 137 -128 193
-213 26 -40 59 -104 75 -143 15 -38 31 -70 36 -70 16 0 7 26 -41 125 -48 101
-139 227 -202 279 -19 16 -36 38 -39 49 -4 14 -17 24 -37 28 -17 3 -45 16 -62
28 -98 70 -308 144 -446 157 -41 4 -78 13 -88 22 -15 13 -22 14 -37 4 -12 -7
-56 -12 -107 -12 -85 0 -249 -20 -285 -35 -10 -4 -18 -5 -18 -2 0 8 144 53
210 67 91 19 249 23 344 11 420 -56 756 -356 830 -741 11 -60 24 -110 28 -110
17 0 -22 174 -62 278 -90 234 -318 446 -576 536 -124 43 -304 69 -424 59z"/>
<path d="M2130 2430 c0 -11 7 -20 15 -20 8 0 15 9 15 20 0 11 -7 20 -15 20 -8
0 -15 -9 -15 -20z"/>
<path d="M1205 2260 c-8 -13 3 -30 20 -30 14 0 27 24 18 34 -10 9 -31 7 -38
-4z"/>
<path d="M1560 2251 c-12 -24 -13 -61 0 -81 6 -10 4 -22 -6 -37 -15 -24 -6
-31 14 -11 15 15 15 43 0 67 -9 15 -8 24 5 45 19 29 21 36 7 36 -5 0 -14 -9
-20 -19z"/>
<path d="M1630 2235 c-9 -10 -11 -31 -6 -62 3 -27 2 -51 -4 -59 -8 -8 -8 -14
-1 -19 6 -3 16 5 22 19 9 19 9 32 -1 55 -10 26 -10 35 4 56 18 27 7 35 -14 10z"/>
<path d="M1494 2205 c-15 -23 -16 -31 -5 -62 10 -25 10 -38 2 -46 -17 -17 -13
-31 5 -16 12 10 14 23 9 56 -4 25 -1 51 5 63 17 32 4 36 -16 5z"/>
<path d="M2455 2150 c-4 -7 -3 -16 3 -22 14 -14 45 -2 40 15 -6 16 -34 21 -43
7z"/>
<path d="M1509 2059 c-57 -28 -86 -59 -95 -107 l-5 -27 155 0 c152 0 156 1
156 21 0 28 -39 83 -70 99 -79 42 -81 43 -141 14z m98 -30 c38 -14 73 -48 66
-65 -6 -18 -213 -21 -213 -3 0 23 23 51 53 64 39 17 58 18 94 4z"/>
<path d="M1370 1900 c0 -5 6 -11 13 -12 6 0 -10 -4 -38 -8 l-50 -7 47 -1 c26
-1 50 3 53 8 4 6 72 10 170 10 98 0 166 -4 170 -10 3 -5 27 -9 53 -8 l47 1
-50 7 c-27 4 -44 8 -37 8 6 1 12 7 12 12 0 6 -72 10 -195 10 -123 0 -195 -4
-195 -10z"/>
<path d="M482 1843 c2 -10 10 -18 18 -18 22 0 18 29 -3 33 -14 3 -18 -1 -15
-15z"/>
<path d="M678 1723 c-9 -10 -23 -31 -31 -48 l-16 -30 -1 36 c0 22 -6 39 -14
42 -11 5 -16 -10 -21 -71 -8 -106 -25 -221 -36 -249 -6 -17 -5 -23 6 -23 21 0
27 16 46 126 17 105 61 220 79 209 14 -9 12 -78 -5 -159 -14 -66 -13 -92 4
-81 22 13 49 192 37 241 -7 28 -27 31 -48 7z"/>
<path d="M1207 1723 c-26 -29 -46 -86 -67 -190 -37 -180 15 -239 97 -110 13
21 22 44 20 50 -2 7 -13 -7 -25 -29 -25 -49 -50 -76 -63 -69 -5 4 -9 31 -9 61
0 43 5 62 25 88 39 52 77 142 73 178 -4 38 -26 47 -51 21z m38 -40 c-10 -43
-69 -167 -73 -154 -4 13 25 116 44 153 19 37 38 37 29 1z"/>
<path d="M1558 1720 c-60 -32 -86 -88 -55 -119 10 -10 7 -17 -14 -34 -37 -30
-69 -86 -69 -120 0 -89 82 -97 173 -17 20 18 37 27 37 22 0 -6 12 -24 26 -41
28 -34 77 -43 87 -17 4 10 1 13 -7 10 -7 -3 -23 4 -36 14 l-24 19 23 52 c12
29 21 57 19 62 -2 5 -12 -13 -23 -41 -11 -27 -23 -50 -27 -50 -4 0 -10 20 -14
45 -3 25 -10 45 -14 45 -17 0 -31 -29 -25 -53 5 -20 -1 -31 -37 -61 -74 -64
-118 -62 -118 6 0 47 35 106 75 128 30 16 32 30 5 30 -30 0 -26 41 8 72 44 42
101 64 89 36 -22 -53 -22 -54 -3 -39 10 9 16 25 14 40 -4 34 -39 38 -90 11z"/>
<path d="M739 1613 c-13 -16 -12 -17 3 -5 28 22 29 -2 3 -92 -29 -100 -31
-132 -9 -140 21 -8 41 4 65 40 12 18 19 23 19 13 0 -21 32 -49 54 -49 10 0 33
15 52 34 19 19 34 28 34 21 0 -8 7 -21 16 -29 18 -18 47 -8 58 21 6 14 5 16
-5 6 -7 -7 -17 -13 -21 -13 -12 0 -10 56 4 85 13 30 45 30 40 0 -7 -45 -1
-139 9 -151 6 -7 16 -11 24 -8 15 6 41 62 32 71 -3 3 -9 -6 -13 -21 -3 -14
-10 -26 -15 -26 -14 0 -10 82 6 138 9 29 13 57 10 62 -11 18 -25 11 -36 -17
-7 -16 -13 -23 -16 -15 -3 6 -13 12 -22 12 -19 0 -61 -40 -61 -58 0 -7 -16
-30 -36 -52 -57 -63 -95 -49 -70 24 14 41 42 74 52 63 4 -4 -3 -18 -16 -32
-13 -14 -19 -25 -13 -25 14 0 43 34 43 51 0 8 -5 20 -11 26 -19 19 -59 -7 -84
-56 -13 -26 -37 -62 -54 -81 l-30 -35 -1 28 c0 16 9 60 21 97 11 38 19 81 17
97 -4 33 -29 41 -49 16z"/>
<path d="M2229 1559 c-14 -14 -20 -31 -17 -54 2 -28 -4 -41 -32 -70 -43 -44
-70 -46 -70 -6 0 21 6 32 20 36 44 14 69 75 36 88 -22 9 -51 -18 -84 -75 -16
-29 -40 -62 -52 -73 l-23 -20 6 35 c3 19 7 42 9 50 3 16 -3 17 -41 5 -21 -6
-23 -5 -16 23 4 18 2 33 -5 37 -16 10 -22 1 -29 -41 -4 -22 -15 -42 -28 -52
l-23 -14 15 35 c19 46 19 71 0 87 -13 11 -21 8 -45 -15 l-30 -29 0 27 c0 49
-25 28 -43 -35 -16 -60 -23 -113 -27 -223 -3 -71 -2 -75 15 -75 11 0 15 12 15
49 0 103 20 204 48 245 32 46 52 57 52 26 0 -26 -37 -100 -50 -100 -6 0 -10
-4 -10 -10 0 -20 40 -9 82 23 55 41 82 39 74 -8 -11 -59 39 -69 77 -15 14 20
14 20 31 -5 23 -35 50 -31 100 16 40 36 45 38 54 23 8 -14 4 -22 -15 -37 -29
-24 -28 -61 3 -65 28 -4 54 23 54 56 1 17 10 34 26 46 24 17 27 17 42 3 14
-15 13 -18 -12 -38 -32 -25 -32 -62 0 -67 28 -4 54 23 54 56 0 19 9 32 30 44
17 9 30 22 30 28 0 6 -12 2 -26 -9 -15 -12 -29 -21 -33 -21 -3 0 -15 19 -25
41 -15 29 -17 45 -10 57 16 25 34 26 34 1 0 -16 3 -20 10 -13 13 13 4 41 -16
48 -37 14 -73 -37 -61 -84 3 -13 -2 -25 -16 -35 -30 -21 -32 -20 -52 26 -14
29 -16 45 -9 57 16 25 32 25 37 0 4 -21 4 -21 6 3 0 16 -5 29 -15 33 -22 8
-22 8 -45 -15z m-59 -43 c0 -15 -40 -49 -48 -41 -7 7 27 55 38 55 6 0 10 -6
10 -14z m80 -125 c0 -23 -25 -46 -35 -32 -7 13 12 51 25 51 6 0 10 -8 10 -19z
m110 -5 c0 -28 -17 -43 -32 -28 -6 6 -5 17 4 31 17 28 28 27 28 -3z"/>
<path d="M1620 1385 c-13 -14 -21 -28 -17 -31 7 -7 46 35 47 49 0 12 -5 8 -30
-18z"/>
<path d="M1207 1151 c-13 -26 -13 -31 -1 -31 8 0 14 6 14 13 0 8 3 7 10 -3 16
-25 22 -3 7 26 l-14 27 -16 -32z"/>
<path d="M1390 1171 c0 -6 5 -13 11 -16 6 -4 8 -13 5 -21 -3 -8 1 -14 10 -14
8 0 12 5 9 11 -4 5 1 19 11 30 15 16 15 19 1 19 -8 0 -18 -6 -20 -12 -4 -10
-6 -10 -6 0 -1 14 -21 17 -21 3z"/>
<path d="M1508 1153 c6 -34 22 -46 39 -31 15 12 18 58 3 58 -5 0 -10 -11 -10
-25 0 -14 -5 -25 -11 -25 -7 0 -9 10 -7 25 3 16 1 25 -7 25 -8 0 -10 -10 -7
-27z"/>
<path d="M1625 1150 c0 -16 3 -30 8 -30 4 0 7 6 7 13 0 7 3 8 8 2 4 -5 16 -11
28 -13 18 -2 20 2 16 28 -5 35 -10 37 -28 13 -13 -17 -13 -17 -14 0 0 31 -25
18 -25 -13z"/>
<path d="M1803 1150 c1 -16 7 -30 13 -30 6 0 9 13 6 30 -6 39 -22 39 -19 0z"/>
<path d="M1888 1168 c7 -7 12 -20 12 -30 0 -10 7 -18 16 -18 8 0 12 4 9 10 -3
5 -1 19 5 30 6 12 7 20 1 20 -5 0 -12 -6 -14 -12 -4 -10 -6 -10 -6 0 -1 6 -9
12 -18 12 -13 0 -14 -3 -5 -12z"/>
<path d="M475 1120 c12 -61 55 -173 91 -238 119 -213 340 -385 587 -456 95
-28 326 -56 456 -56 232 0 487 100 652 257 31 30 61 53 65 52 24 -4 34 3 34
26 0 14 15 46 34 72 55 78 83 134 115 221 19 55 25 82 17 82 -7 0 -20 -26 -30
-57 -37 -116 -137 -286 -175 -296 -12 -3 -21 -13 -21 -22 0 -18 -59 -74 -142
-138 -122 -91 -325 -164 -482 -172 l-91 -5 76 15 c326 62 580 230 724 478 46
80 21 63 -31 -20 -54 -86 -172 -211 -249 -263 -41 -28 -33 -18 46 58 53 50
117 123 143 162 63 93 129 240 109 240 -4 0 -20 -31 -35 -68 -46 -111 -99
-192 -188 -286 -180 -188 -381 -281 -631 -293 -137 -7 -223 6 -329 48 -257
103 -483 347 -546 591 -25 95 -24 92 -35 81 -12 -12 30 -152 69 -228 39 -78
100 -164 164 -231 83 -87 53 -93 -40 -8 -76 69 -146 157 -195 243 -17 30 -32
50 -34 44 -12 -36 175 -274 261 -333 19 -14 37 -33 40 -42 2 -10 13 -18 26
-18 12 0 34 -8 48 -19 32 -22 128 -63 237 -102 95 -33 80 -37 -31 -8 -103 27
-249 96 -333 158 -77 57 -183 165 -230 234 -42 61 -104 197 -121 262 -15 59
-36 88 -25 35z m625 -627 c7 -8 -101 47 -127 65 -13 8 -20 18 -18 23 5 6 123
-65 145 -88z"/>
<path d="M2594 1099 c-7 -12 15 -31 28 -23 4 3 8 12 8 20 0 17 -26 19 -36 3z"/>
<path d="M1015 1050 c0 -24 4 -30 21 -30 16 0 21 6 21 30 0 24 -5 30 -21 30
-17 0 -21 -6 -21 -30z"/>
<path d="M1130 1061 c7 -13 7 -22 0 -26 -5 -3 -10 -11 -10 -16 0 -6 6 -7 13
-2 6 4 21 6 32 4 16 -3 17 -1 6 13 -11 13 -11 19 -1 31 11 13 8 15 -19 15 -28
0 -31 -2 -21 -19z"/>
<path d="M1240 1051 c0 -17 5 -33 10 -36 6 -3 10 1 10 9 0 9 5 16 10 16 6 0
10 9 10 20 0 13 -7 20 -20 20 -15 0 -20 -7 -20 -29z"/>
<path d="M1345 1050 c0 -24 4 -30 21 -30 16 0 21 6 21 30 0 24 -5 30 -21 30
-17 0 -21 -6 -21 -30z"/>
<path d="M1455 1051 c0 -22 5 -31 21 -34 18 -3 21 1 20 27 -1 23 -7 32 -21 34
-16 2 -20 -3 -20 -27z"/>
<path d="M1566 1048 c1 -45 24 -49 24 -4 0 22 -5 36 -12 36 -8 0 -13 -13 -12
-32z"/>
<path d="M1655 1050 c0 -24 4 -30 21 -30 16 0 21 6 21 30 0 24 -5 30 -21 30
-17 0 -21 -6 -21 -30z"/>
<path d="M1766 1050 c1 -36 14 -53 14 -19 1 21 2 22 11 7 15 -27 29 -21 29 12
0 17 -5 30 -11 30 -6 0 -8 -7 -5 -17 6 -16 6 -16 -12 0 -25 23 -27 22 -26 -13z"/>
<path d="M1892 1068 c-16 -16 -15 -33 3 -48 12 -10 19 -10 27 -2 9 9 8 12 -6
12 -11 0 -16 6 -14 18 2 9 10 16 16 15 7 -2 12 2 12 7 0 14 -23 13 -38 -2z"/>
<path d="M1995 1050 c0 -24 4 -30 21 -30 16 0 21 6 21 30 0 24 -5 30 -21 30
-17 0 -21 -6 -21 -30z"/>
<path d="M376 975 c-8 -9 -13 -22 -10 -30 8 -20 50 -19 58 1 8 22 8 22 -13 34
-15 7 -23 6 -35 -5z"/>
<path d="M617 646 c-7 -18 1 -26 25 -26 13 0 18 6 16 17 -4 22 -34 29 -41 9z"/>
<path d="M1870 616 c0 -8 5 -18 10 -21 13 -8 42 14 34 26 -9 15 -44 10 -44 -5z"/>
<path d="M1480 485 c-10 -12 -10 -18 0 -30 7 -8 18 -15 25 -15 7 0 18 7 25 15
10 12 10 18 0 30 -7 8 -18 15 -25 15 -7 0 -18 -7 -25 -15z"/>
<path d="M977 384 c-14 -14 -7 -35 11 -32 9 2 17 10 17 17 0 16 -18 25 -28 15z"/>
<path d="M1916 364 c-9 -22 1 -34 29 -34 24 0 35 16 28 38 -7 18 -50 15 -57
-4z"/>
</g>
</svg>
